<?xml version="1.0" encoding="UTF-8"?>
<svg width="689px" height="42px" viewBox="0 0 689 42" version="1.1" xmlns="http://www.w3.org/2000/svg" xmlns:xlink="http://www.w3.org/1999/xlink">
    <!-- Generator: Sketch 58 (84663) - https://sketch.com -->
    <title>trust logo</title>
    <desc>Created with Sketch.</desc>
    <g id="V1" stroke="none" stroke-width="1" fill="none" fill-rule="evenodd" opacity="0.900000036">
        <g id="Remarketing-page_1" transform="translate(-148.000000, -840.000000)">
            <g id="trust-logo" transform="translate(148.000000, 835.000000)">
                <g id="bbb-seeklogo.com" transform="translate(205.000000, 6.000000)">
                    <path d="M112.324878,33.5050069 C112.324878,36.4674042 109.929147,38.8688425 106.97379,38.8688425 L5.45608432,38.8688425 C2.50072752,38.8688425 0.104996445,36.4674042 0.104996445,33.5050069 L0.104996445,5.49526027 C0.104996445,2.53286301 2.50072752,0.131424658 5.45608432,0.131424658 L106.97379,0.131424658 C109.929147,0.131424658 112.324878,2.53286301 112.324878,5.49526027 L112.324878,33.5050069 Z" id="Path" stroke="#323232" stroke-width="0.799872385" fill="#323232"></path>
                    <path d="M39.4402891,0.131424658 L5.45608432,0.131424658 C2.50072752,0.131424658 0.104996445,2.53286301 0.104996445,5.49526027 L0.104996445,33.5050069 C0.104996445,36.4674042 2.50072752,38.8688425 5.45608432,38.8688425 L39.4402891,38.8688425 L39.4402891,0.131424658 Z" id="Path" fill="#FFFFFF"></path>
                    <path d="M18.7541239,12.1752124 L17.0827085,14.4820891 C16.2448688,15.6387329 16.5041621,17.6881027 17.6484634,18.5161849 L20.747191,20.7586849 C21.2788354,21.1433425 21.3206741,21.5247945 21.0685761,21.9316233 L21.5184085,22.266863 L23.0869595,20.0887397 C24.0564444,18.7429726 23.9719676,16.9110411 22.5342625,15.8615137 L19.409952,13.5802809 C19.0355358,13.3070137 18.9971614,12.9255616 19.2042229,12.4978973 L18.7541239,12.1752124 Z" id="Path" fill="#323233"></path>
                    <path d="M21.4355306,1.97537671 L18.8335375,5.58234246 C17.613287,7.27403425 18.0569902,10.1629726 19.7241419,11.3893357 L24.0018144,14.5363151 C24.8689677,15.1742055 24.9819588,16.7988493 24.3509142,17.6320069 L24.7136049,17.9047397 L27.6638984,13.7434931 C28.9891455,11.8749658 28.9121303,9.11397945 26.8316551,7.59965754 L22.2560485,4.26943151 C21.6156768,3.80330137 21.2956242,3.0110137 21.8291341,2.25452055 L21.4355306,1.97537671 Z" id="Path" fill="#323233"></path>
                    <path d="M14.5782501,24.5967124 L18.0263441,24.5967124 L18.6408664,26.6922945 C20.5190769,26.6922945 22.3975539,26.6922945 24.2757645,26.6922945 L24.8905532,24.5967124 L28.3383807,24.5967124 L27.8864163,23.0554109 C23.6012822,23.0554109 19.3156151,23.0554109 15.0302145,23.0554109 L14.5782501,24.5967124 Z" id="Path" fill="#323233"></path>
                    <path d="M32.3850076,35.3476233 C32.3850076,35.3158357 32.3807438,35.2875206 32.3722162,35.2632124 C32.3639551,35.238637 32.3500977,35.2161986 32.3303776,35.1958973 C32.3106574,35.1755958 32.2845416,35.1566301 32.2517635,35.1395342 C32.2189854,35.1224384 32.1787457,35.1050754 32.1299782,35.0882466 C32.0854746,35.0724863 32.0497652,35.0583288 32.0223169,35.0452397 C31.995135,35.0321507 31.973816,35.0187945 31.9588927,35.0057055 C31.9439693,34.9920822 31.9341092,34.9779246 31.9290459,34.9640342 C31.9239827,34.9496096 31.9215843,34.9335822 31.9215843,34.9154178 C31.9215843,34.8985891 31.9250486,34.8822945 31.9309114,34.8670685 C31.9373071,34.8518425 31.9474336,34.8387534 31.9610246,34.8272672 C31.9748819,34.8160479 31.9924702,34.8066986 32.0143222,34.7997534 C32.0361743,34.7928082 32.0622902,34.7893357 32.0924034,34.7893357 C32.1366404,34.7893357 32.1752813,34.7957466 32.2075264,34.8093699 C32.2397714,34.8229931 32.2717501,34.8424931 32.3034622,34.8689384 L32.3663535,34.7944109 C32.3293116,34.7658288 32.2904042,34.7433904 32.2488321,34.7268288 C32.2075264,34.7105342 32.1571601,34.7022534 32.0987991,34.7022534 C32.0577599,34.7022534 32.0204515,34.7073288 31.9863409,34.7169452 C31.9522305,34.7268288 31.9237161,34.7415206 31.8994657,34.7604863 C31.8757483,34.7797191 31.8570941,34.8029589 31.8437697,34.8299384 C31.8304452,34.8569178 31.823783,34.8873699 31.823783,34.9218288 C31.823783,34.9528151 31.8283133,34.9803288 31.8368409,35.0038357 C31.8456351,35.0276096 31.8600254,35.0492466 31.8794791,35.0682124 C31.8991992,35.0874452 31.9253151,35.1053425 31.9575602,35.1219042 C31.9898053,35.1387329 32.0297786,35.1552945 32.07748,35.1718561 C32.1174532,35.1857466 32.1510308,35.199637 32.1779462,35.212726 C32.2048615,35.2263493 32.226447,35.2402397 32.2427029,35.253863 C32.2589586,35.2677534 32.2704176,35.2827124 32.2770799,35.2990069 C32.2837421,35.3155685 32.2872064,35.3334658 32.2872064,35.3529658 C32.2872064,35.3986439 32.2704176,35.4347055 32.2365736,35.4606164 C32.2024631,35.4867945 32.1560941,35.4998836 32.0977331,35.4998836 C32.0526966,35.4998836 32.0105915,35.4902672 31.972217,35.4715685 C31.9333098,35.4528699 31.8976003,35.4280274 31.8640227,35.3970411 L31.7987331,35.4680958 C31.8339096,35.5025548 31.8768142,35.5308699 31.927447,35.5533082 C31.9778133,35.5757466 32.0335094,35.5869658 32.0940023,35.5869658 C32.1401048,35.5869658 32.1808775,35.5808219 32.21712,35.5685342 C32.2530959,35.5565137 32.2837421,35.5396849 32.308792,35.5183151 C32.3341083,35.4969452 32.353029,35.4715685 32.366087,35.4424521 C32.3786119,35.4125342 32.3850076,35.3812809 32.3850076,35.3476233 Z" id="Path" fill="#006697"></path>
                    <path d="M33.2971975,35.5730754 L33.2971975,34.7156096 L33.1906022,34.7156096 L32.9806093,35.2290206 C32.975546,35.2410411 32.9702163,35.2551986 32.9638206,35.2704246 C32.9576913,35.2861849 32.9515621,35.3014109 32.9456994,35.3171712 C32.9401031,35.3326643 32.9345068,35.3473561 32.9291771,35.3612466 C32.9241138,35.375137 32.9206494,35.3866233 32.9179846,35.3954384 C32.9153197,35.3866233 32.9115888,35.3754042 32.906792,35.3617809 C32.9014623,35.3481575 32.8961325,35.334 32.8902697,35.3185069 C32.884407,35.3027466 32.8780112,35.2875206 32.8721485,35.2717603 C32.8657528,35.256 32.8601565,35.2421096 32.8553598,35.2290206 L32.6480318,34.7156096 L32.5387715,34.7156096 L32.5387715,35.5730754 L32.6331084,35.5730754 L32.6331084,34.9923493 L32.6331084,34.9004589 C32.6357733,34.9084726 32.6387047,34.9186233 32.6424355,34.9303767 C32.6461663,34.9423973 32.6504302,34.9544178 32.655227,34.9672397 C32.6597572,34.9797945 32.664554,34.9931507 32.6696173,35.0062397 C32.6746806,35.019863 32.6797439,35.0318836 32.6848072,35.0425685 L32.9158526,35.5949794 L33.1508955,35.0425685 C33.1559588,35.0310822 33.161022,35.0187945 33.1660853,35.0057055 C33.1711486,34.9926164 33.1762119,34.9795274 33.1812751,34.9669726 C33.1863384,34.9541507 33.1906022,34.9421301 33.1943331,34.9301096 C33.1983304,34.9183561 33.2012617,34.9082055 33.2039266,34.9001918 L33.2039266,34.9920822 L33.2039266,35.5728082 L33.2971975,35.5728082 L33.2971975,35.5730754 Z" id="Path" fill="#397296"></path>
                    <path d="M17.542401,33.1956781 C17.3955659,32.1993082 16.9950337,31.9605 16.193703,31.6065616 C16.7994313,31.2512876 17.1717156,30.7287945 17.1717156,30.012637 C17.1717156,28.5811233 16.0015648,27.997726 14.7253517,27.997726 L11.1600029,27.997726 L11.1600029,35.5971164 L14.6920406,35.5971164 C16.2006318,35.5971164 17.7992959,34.9359863 17.542401,33.1956781 Z M12.772791,29.4503425 L14.6254186,29.4503425 C15.7827779,29.4503425 15.8246165,31.0712466 14.6981699,31.0712466 L12.772791,31.0712466 L12.772791,29.4503425 Z M14.8388758,34.1610616 L12.772791,34.1610616 L12.772791,32.4274315 L14.8388758,32.4274315 C16.3581264,32.4274315 16.2656549,34.1610616 14.8388758,34.1610616 Z" id="Shape" fill="#323233" fill-rule="nonzero"></path>
                    <path d="M24.6216664,33.1956781 C24.4745648,32.1993082 24.0737662,31.9605 23.2729684,31.6065616 C23.8784302,31.2512876 24.2507145,30.7287945 24.2507145,30.012637 C24.2507145,28.5811233 23.0808303,27.997726 21.8043507,27.997726 L18.2390018,27.997726 L18.2390018,35.5971164 L21.7710395,35.5971164 C23.2793641,35.5971164 24.8780283,34.9359863 24.6216664,33.1956781 Z M19.8517899,29.4503425 L21.7044175,29.4503425 C22.8620433,29.4503425 22.9036154,31.0712466 21.7771688,31.0712466 L19.8517899,31.0712466 L19.8517899,29.4503425 Z M21.9176082,34.1610616 L19.8517899,34.1610616 L19.8517899,32.4274315 L21.9176082,32.4274315 C23.4368588,32.4274315 23.3446539,34.1610616 21.9176082,34.1610616 Z" id="Shape" fill="#323233" fill-rule="nonzero"></path>
                    <path d="M31.7003989,33.1956781 C31.5532973,32.1993082 31.1527651,31.9605 30.3517008,31.6065616 C30.9574291,31.2512876 31.329447,30.7287945 31.329447,30.012637 C31.329447,28.5811233 30.1595627,27.997726 28.8833496,27.997726 L25.3177343,27.997726 L25.3177343,35.5971164 L28.8500385,35.5971164 C30.358363,35.5971164 31.9572937,34.9359863 31.7003989,33.1956781 Z M26.9307888,29.4503425 L28.7831499,29.4503425 C29.9407757,29.4503425 29.9823479,31.0712466 28.8559012,31.0712466 L26.9305223,31.0712466 L26.9305223,29.4503425 L26.9307888,29.4503425 Z M28.9966072,34.1610616 L26.9307888,34.1610616 L26.9307888,32.4274315 L28.9966072,32.4274315 C30.5161242,32.4274315 30.4233863,34.1610616 28.9966072,34.1610616 Z" id="Shape" fill="#323233" fill-rule="nonzero"></path>
                    <g id="Group" transform="translate(43.704104, 13.623288)" fill="#FFFFFF">
                        <path d="M13.3182928,1.41869178 C12.887381,0.921575342 12.2091678,0.465061643 11.5693291,0.290095891 C11.2911152,0.213965754 10.9814557,0.176034246 10.6406169,0.176034246 C10.1609377,0.176034246 9.72256424,0.263650685 9.32602944,0.438883561 C8.92976113,0.614383561 8.58865593,0.859068493 8.3035133,1.1734726 C8.01863716,1.48760958 7.79558633,1.86478767 7.63595976,2.30473973 C7.4758002,2.74442466 7.39612016,3.2289863 7.39612016,3.75842466 C7.39612016,4.30763014 7.47260234,4.80207534 7.62556671,5.24176027 C7.77853107,5.68171233 7.99571915,6.05728767 8.27766392,6.3684863 C8.55960869,6.67915069 8.89485115,6.91929452 9.28445725,7.08784931 C9.67379686,7.25640411 10.1084395,7.34081507 10.5883852,7.34081507 C11.4723274,7.34081507 13.0035699,6.8559863 13.4398115,5.99210958 L12.401306,5.06919863 C12.1060368,5.54040411 11.1839868,5.96112329 10.6302239,5.96112329 C10.3589387,5.96112329 10.1153682,5.90529452 9.90004558,5.79256849 C9.6844564,5.68010958 9.50191182,5.52464384 9.3524118,5.32617124 C9.20264529,5.12769863 9.08992068,4.8945 9.0134385,4.62657534 C8.93695632,4.35891781 8.89858198,4.06935616 8.89858198,3.75842466 C8.89858198,3.43440411 8.93695632,3.13816439 9.0134385,2.87023973 C9.09018718,2.60231507 9.20131285,2.37071918 9.34708203,2.17545206 C9.4931177,1.98045206 9.67406335,1.82819178 9.88965245,1.71920548 C10.1052417,1.60995206 10.3485456,1.55545891 10.6198309,1.55545891 C11.168264,1.55545891 11.9432124,1.91981507 12.3056367,2.39769863 L13.3182928,1.41869178 Z" id="Path"></path>
                        <polygon id="Path" points="33.3147858 7.23182876 33.3147858 5.87190411 29.5487712 5.87190411 29.5487712 4.19490411 32.5795442 4.19490411 32.5795442 2.84566439 29.5487712 2.84566439 29.5487712 1.64467809 33.1586236 1.64467809 33.1586236 0.285287672 28.0878816 0.285287672 28.0878816 7.23182876"></polygon>
                        <path d="M40.0441519,2.14580137 C39.8597419,1.70584931 39.605512,1.34710274 39.281995,1.0690274 C38.9587445,0.791219178 38.5768666,0.591143836 38.1347622,0.46880137 C37.6931909,0.346458904 37.2108468,0.285287672 36.6893289,0.285287672 L34.4041905,0.285287672 L34.4041905,7.23182876 L36.5856649,7.23182876 C37.0514868,7.23182876 37.5087809,7.16531507 37.957281,7.03335616 C38.4060475,6.90086301 38.8055137,6.69384246 39.1570118,6.41282876 C39.5079772,6.13181507 39.7901885,5.77119863 40.0017803,5.33124658 C40.213905,4.89156164 40.3199674,4.36719863 40.3199674,3.75842466 C40.3199674,3.12320548 40.2277624,2.58602055 40.0441519,2.14580137 Z M38.681863,4.62657534 C38.5915235,4.88808904 38.4556143,5.11086986 38.2754681,5.29625342 C38.0945224,5.48136986 37.8626775,5.62534931 37.5812658,5.72792466 C37.299854,5.8305 36.9675429,5.88178767 36.5856649,5.88178767 L35.8658797,5.88178767 L35.8658797,1.63506164 L36.6376302,1.63506164 C37.4093807,1.63506164 37.9655421,1.81189726 38.3069138,2.16583561 C38.6472195,2.51977397 38.8180386,3.05081507 38.8180386,3.75842466 C38.8177721,4.07603425 38.7727356,4.36532876 38.681863,4.62657534 Z" id="Shape" fill-rule="nonzero"></path>
                        <polygon id="Path" points="43.1940453 7.23182876 43.1940453 0.285287672 41.7331557 0.285287672 41.7331557 7.23182876"></polygon>
                        <polygon id="Path" points="50.0009595 1.65482876 50.0009595 0.285287672 44.3458083 0.285287672 44.3458083 1.65482876 46.4430723 1.65482876 46.4430723 7.23182876 47.9036955 7.23182876 47.9036955 1.65482876"></polygon>
                        <path d="M62.8997995,2.14580137 C62.7159224,1.70584931 62.4619589,1.34710274 62.1381755,1.0690274 C61.8151915,0.791219178 61.4325141,0.591143836 60.9912092,0.46880137 C60.5493714,0.346458904 60.0672938,0.285287672 59.545776,0.285287672 L57.2606376,0.285287672 L57.2606376,7.23182876 L59.4413125,7.23182876 C59.9071342,7.23182876 60.3649614,7.16531507 60.8134615,7.03335616 C61.2624944,6.90086301 61.6619606,6.69384246 62.0134589,6.41282876 C62.3641577,6.13181507 62.6458359,5.77119863 62.8582272,5.33124658 C63.0703521,4.89156164 63.1764145,4.36719863 63.1764145,3.75842466 C63.1764145,3.12320548 63.0842094,2.58602055 62.8997995,2.14580137 Z M61.53831,4.62657534 C61.4482369,4.88808904 61.3123279,5.11086986 61.1321816,5.29625342 C60.9509695,5.48136986 60.719391,5.62534931 60.4379792,5.72792466 C60.1565674,5.8305 59.8242563,5.88178767 59.441579,5.88178767 L58.7215272,5.88178767 L58.7215272,1.63506164 L59.4940772,1.63506164 C60.2658277,1.63506164 60.8219891,1.81189726 61.1636273,2.16583561 C61.503933,2.51977397 61.6747521,3.05081507 61.6747521,3.75842466 C61.6744856,4.07603425 61.6291825,4.36532876 61.53831,4.62657534 Z" id="Shape" fill-rule="nonzero"></path>
                        <polygon id="Path" points="56.166436 7.23182876 56.166436 5.87190411 52.3998884 5.87190411 52.3998884 4.19490411 55.4303949 4.19490411 55.4303949 2.84566439 52.3998884 2.84566439 52.3998884 1.64467809 56.0097408 1.64467809 56.0097408 0.285287672 50.9389988 0.285287672 50.9389988 7.23182876"></polygon>
                        <polygon id="Path" points="43.9450097 16.2010274 43.9450097 14.841637 40.1789951 14.841637 40.1789951 13.1643699 43.2100346 13.1643699 43.2100346 11.8145958 40.1789951 11.8145958 40.1789951 10.6141439 43.7888475 10.6141439 43.7888475 9.25475342 38.717839 9.25475342 38.717839 16.2010274"></polygon>
                        <path d="M20.0620492,1.41869178 C19.6311375,0.921575342 18.9529243,0.465061643 18.3130856,0.290095891 C18.0348716,0.213965754 17.7252121,0.176034246 17.3846399,0.176034246 C16.9049606,0.176034246 16.4665872,0.263650685 16.0700524,0.438883561 C15.6735176,0.614383561 15.3326789,0.859068493 15.0478028,1.1734726 C14.7626601,1.48760958 14.5398758,1.86478767 14.3799827,2.30473973 C14.2198232,2.74442466 14.1401431,3.2289863 14.1401431,3.75842466 C14.1401431,4.30763014 14.2166253,4.80207534 14.3695896,5.24176027 C14.5228205,5.68171233 14.7400086,6.05728767 15.0219533,6.3684863 C15.3036316,6.67915069 15.6391406,6.91929452 16.0287467,7.08784931 C16.4180863,7.25640411 16.8527289,7.34081507 17.3329411,7.34081507 C18.2168832,7.34081507 19.7481258,6.8559863 20.184101,5.99210958 L19.1455954,5.06919863 C18.8503263,5.54040411 17.9280098,5.96112329 17.3747798,5.96112329 C17.1032281,5.96112329 16.8599241,5.90529452 16.644335,5.79256849 C16.4287459,5.68010958 16.2462012,5.52464384 16.0964348,5.32617124 C15.9469347,5.12769863 15.8339437,4.8945 15.7574615,4.62657534 C15.6807127,4.35891781 15.642605,4.06935616 15.642605,3.75842466 C15.642605,3.43440411 15.6807127,3.13816439 15.7574615,2.87023973 C15.8339437,2.60231507 15.9453358,2.37071918 16.091105,2.17545206 C16.2371406,1.98045206 16.4180863,1.82819178 16.6336755,1.71920548 C16.8495311,1.60995206 17.092835,1.55545891 17.3641203,1.55545891 C17.912287,1.55545891 18.6875019,1.91981507 19.0499261,2.39769863 L20.0620492,1.41869178 Z" id="Path"></path>
                        <path d="M13.8072991,13.0056986 C13.6178258,12.7546027 13.3803846,12.5660137 13.0957749,12.4401986 C13.3329496,12.3010274 13.5176261,12.1161781 13.6498044,11.8843151 C13.7819827,11.6529863 13.8483383,11.3885342 13.8483383,11.0904246 C13.8483383,10.4950069 13.6450075,10.040363 13.2383462,9.72622603 C12.8316849,9.41155479 12.2829852,9.25502055 11.5917142,9.25502055 L8.3288297,9.25502055 L8.3288297,16.2012945 L11.561068,16.2012945 C11.9405475,16.2012945 12.2861831,16.1534794 12.597708,16.0575822 C12.9094995,15.9614178 13.175455,15.8190411 13.3958409,15.6307191 C13.6159604,15.441863 13.7870459,15.2073288 13.9090977,14.9260479 C14.0311494,14.6447671 14.0921751,14.3223493 14.0921751,13.9582603 C14.0919087,13.5744042 13.9970388,13.2570616 13.8072991,13.0056986 Z M9.72096531,10.5345411 L11.5304218,10.5345411 C11.8419468,10.5345411 12.0655307,10.5909042 12.2011732,10.7036301 C12.3368158,10.8158219 12.4045039,10.9814384 12.4045039,11.1996781 C12.4045039,11.3914726 12.3453435,11.5485411 12.2267561,11.6711507 C12.1081688,11.7937603 11.8997748,11.8549315 11.6015742,11.8549315 L9.72096531,11.8549315 L9.72096531,10.5345411 Z M12.3791875,14.6380891 C12.2131652,14.8002329 11.9573363,14.8811712 11.6117008,14.8811712 L9.7212318,14.8811712 L9.7212318,13.0850342 L11.6117008,13.0850342 C12.2893809,13.0850342 12.6280877,13.3826096 12.6280877,13.9780274 C12.6280877,14.2561027 12.5452098,14.4756781 12.3791875,14.6380891 Z" id="Shape" fill-rule="nonzero"></path>
                        <path d="M20.8047525,13.1349863 L20.8047525,9.25475342 L19.3819707,9.25475342 L19.3819707,13.1547534 C19.3819707,13.7167809 19.2513913,14.1567329 18.9907657,14.4743425 C18.7298735,14.7916849 18.372246,14.9503561 17.9184162,14.9503561 C17.4645864,14.9503561 17.1085578,14.7887466 16.85113,14.4641918 C16.5937022,14.1401712 16.4647218,13.6970137 16.4647218,13.1347191 L16.4647218,9.25475342 L15.0416735,9.25475342 L15.0416735,13.1547534 C15.0416735,13.6638904 15.1109605,14.113726 15.2500674,14.5039931 C15.3889079,14.8942603 15.583711,15.2233561 15.8344766,15.4915479 C16.0849758,15.7594726 16.3885061,15.9627534 16.7442681,16.1019246 C17.1000302,16.2408288 17.4912353,16.3102809 17.9184162,16.3102809 C18.8263423,16.3102809 19.5344021,16.0340754 20.0428621,15.4813973 C20.551322,14.9287191 20.8047525,14.1471164 20.8047525,13.1349863 Z" id="Path"></path>
                        <path d="M27.3451783,14.0971643 C27.3451783,13.7202534 27.2740258,13.4090548 27.1317211,13.1643699 C26.9894162,12.9196849 26.8047397,12.7180069 26.5776916,12.5590685 C26.3506434,12.4001301 26.0964135,12.2759178 25.8155346,12.1866986 C25.5341228,12.0974794 25.2513786,12.0194794 24.9665025,11.9535 C24.6821593,11.8875206 24.4481825,11.8276849 24.2651049,11.7747945 C24.0822939,11.7219042 23.9367912,11.6658082 23.8280638,11.6062397 C23.7198695,11.5466712 23.6433873,11.4785548 23.5994168,11.4024246 C23.5554462,11.3268288 23.5333277,11.2325342 23.5333277,11.1198082 C23.5333277,11.0399384 23.5503829,10.9643425 23.5839605,10.8916849 C23.6178045,10.8190274 23.6756325,10.7527809 23.7566449,10.6929452 C23.8381904,10.6336439 23.9429203,10.5858288 24.0719008,10.5492328 C24.2006147,10.5129042 24.3599748,10.4947397 24.5497146,10.4947397 C24.8750969,10.4947397 25.1677013,10.5559109 25.4291264,10.6782534 C25.6900186,10.8005958 25.9354544,10.9779658 26.1659669,11.2092945 L27.1927469,10.2366986 C26.8540401,9.89264387 26.476426,9.62445206 26.0596381,9.43292466 C25.6425837,9.24086301 25.1565087,9.14496575 24.6006139,9.14496575 C24.2483161,9.14496575 23.9178705,9.19144521 23.6095434,9.28386986 C23.3012162,9.37682876 23.0320629,9.51092466 22.8015504,9.68615754 C22.5713044,9.86139044 22.3898257,10.0748219 22.2576474,10.3261849 C22.1257357,10.5772809 22.0596466,10.8620342 22.0596466,11.1793767 C22.0596466,11.5234315 22.1137437,11.8111233 22.2222046,12.0427191 C22.3303988,12.2740479 22.4830967,12.4658425 22.6794987,12.6181027 C22.8761672,12.770363 23.1114765,12.8959109 23.3859595,12.9952809 C23.6604427,13.0941164 23.9602421,13.1803973 24.285358,13.2533219 C24.6176691,13.3257124 24.8886879,13.3951643 25.0986808,13.4616781 C25.3089401,13.5276575 25.4698991,13.5973767 25.5815578,13.6697672 C25.693483,13.7426918 25.7696986,13.8201575 25.8102049,13.9029658 C25.8509776,13.985774 25.8712307,14.083274 25.8712307,14.1957328 C25.8712307,14.4604521 25.771031,14.6525137 25.5711648,14.7713836 C25.3715649,14.8905206 25.057908,14.9498219 24.6309935,14.9498219 C24.285358,14.9498219 23.9586432,14.8886507 23.6500495,14.7663082 C23.341989,14.6439658 23.0621761,14.4404178 22.8116769,14.1559315 L21.784897,15.0494589 C22.0559157,15.439726 22.4353953,15.7471849 22.9233356,15.9721027 C23.4110095,16.1972876 23.9533134,16.3097466 24.5497146,16.3097466 C25.0376549,16.3097466 25.4560417,16.2565891 25.8051416,16.1508082 C26.153975,16.0450274 26.4436479,15.8941027 26.6744269,15.6993699 C26.9044064,15.5043699 27.073893,15.2709042 27.1823538,14.999774 C27.2910812,14.7291781 27.3451783,14.4283973 27.3451783,14.0971643 Z" id="Path"></path>
                        <polygon id="Path" points="29.9210555 16.2010274 29.9210555 9.25475342 28.4982737 9.25475342 28.4982737 16.2010274"></polygon>
                        <path d="M37.1631454,16.2010274 L37.1631454,9.25475342 L35.7598173,9.25475342 L35.7598173,12.1915069 C35.7598173,12.2911439 35.7619491,12.4134863 35.7648806,12.5590685 C35.7683449,12.7046507 35.7704768,12.8537055 35.7704768,13.0054315 C35.7704768,13.1510137 35.7720757,13.2885822 35.7755401,13.4173357 C35.7790045,13.5466233 35.7811363,13.6441233 35.7811363,13.7101027 C35.7331684,13.6174109 35.6606836,13.4969384 35.5620828,13.3478836 C35.4642816,13.1990958 35.3707441,13.0588561 35.2825365,12.926363 L32.7623553,9.25502055 L31.4003328,9.25502055 L31.4003328,16.2012945 L32.8028615,16.2012945 L32.8028615,13.1448699 C32.8028615,13.0455 32.8012626,12.9231575 32.7977982,12.7778425 C32.7943339,12.6322603 32.792202,12.4866781 32.792202,12.3410958 C32.792202,12.1891027 32.7906031,12.0480616 32.7871387,11.9193082 C32.7836743,11.7902876 32.7820754,11.6925206 32.7820754,11.6265411 C32.8292439,11.7189658 32.9019952,11.8399726 33.000596,11.9884931 C33.0989302,12.1372809 33.1919347,12.2780548 33.2801423,12.4102809 L35.8925285,16.2010274 L37.1631454,16.2010274 Z" id="Path"></path>
                        <path d="M49.7560566,14.0971643 C49.7560566,13.7202534 49.6846377,13.4090548 49.5423329,13.1643699 C49.4002946,12.9196849 49.2148186,12.7180069 48.9883034,12.5590685 C48.7617882,12.4001301 48.5070253,12.2759178 48.2261465,12.1866986 C47.9444682,12.0974794 47.661724,12.0194794 47.3771143,11.9535 C47.0930376,11.8875206 46.8593273,11.8276849 46.6759832,11.7747945 C46.4929056,11.7219042 46.347403,11.6658082 46.2384092,11.6062397 C46.1302149,11.5466712 46.0539992,11.4785548 46.0102951,11.4024246 C45.9657915,11.3268288 45.943673,11.2325342 45.943673,11.1198082 C45.943673,11.0399384 45.9609948,10.9643425 45.9948388,10.8916849 C46.0289493,10.8190274 46.0865108,10.7527809 46.1675233,10.6929452 C46.2488023,10.6336439 46.3532658,10.5858288 46.4825126,10.5492328 C46.6112265,10.5129042 46.7703201,10.4947397 46.9603264,10.4947397 C47.2857088,10.4947397 47.5788461,10.5559109 47.8397382,10.6782534 C48.1006304,10.8005958 48.3457998,10.9779658 48.5763123,11.2092945 L49.6033587,10.2366986 C49.2643855,9.89264387 48.8862384,9.62445206 48.4694504,9.43292466 C48.0531955,9.24086301 47.5671205,9.14496575 47.0106927,9.14496575 C46.6586614,9.14496575 46.3282158,9.19144521 46.0196222,9.28386986 C45.711828,9.37682876 45.4418752,9.51092466 45.2118958,9.68615754 C44.9816497,9.86139044 44.7999046,10.0748219 44.6679929,10.3261849 C44.5355481,10.5772809 44.4697254,10.8620342 44.4697254,11.1793767 C44.4697254,11.5234315 44.5238225,11.8111233 44.6325499,12.0427191 C44.7407442,12.2740479 44.8934421,12.4658425 45.0898441,12.6181027 C45.2865125,12.770363 45.5218218,12.8959109 45.7963049,12.9952809 C46.070788,13.0941164 46.3705875,13.1803973 46.6957033,13.2533219 C47.0280144,13.3257124 47.2992997,13.3951643 47.5087596,13.4616781 C47.7187525,13.5276575 47.8797115,13.5973767 47.9919032,13.6697672 C48.1035618,13.7426918 48.1797775,13.8201575 48.2200172,13.9029658 C48.26079,13.985774 48.2810431,14.083274 48.2810431,14.1957328 C48.2810431,14.4604521 48.1813765,14.6525137 47.9815101,14.7713836 C47.7819102,14.8905206 47.4682534,14.9498219 47.0413389,14.9498219 C46.6957033,14.9498219 46.369255,14.8886507 46.060395,14.7663082 C45.7520678,14.6439658 45.4725214,14.4404178 45.2220223,14.1559315 L44.1949758,15.0494589 C44.4662611,15.439726 44.8452077,15.7471849 45.3336809,15.9721027 C45.8210883,16.1972876 46.3633923,16.3097466 46.9600599,16.3097466 C47.4474673,16.3097466 47.8663871,16.2565891 48.2152204,16.1508082 C48.5643203,16.0450274 48.8539933,15.8941027 49.0842392,15.6993699 C49.3144853,15.5043699 49.4845049,15.2709042 49.5926992,14.999774 C49.7014265,14.7291781 49.7560566,14.4283973 49.7560566,14.0971643 Z" id="Path"></path>
                        <path d="M55.8693015,14.0971643 C55.8693015,13.7202534 55.7978826,13.4090548 55.6558442,13.1643699 C55.5135393,12.9196849 55.3283299,12.7180069 55.1015482,12.5590685 C54.8747666,12.4001301 54.6202701,12.2759178 54.3396578,12.1866986 C54.0579795,12.0974794 53.7749688,12.0194794 53.4906256,11.9535 C53.2062824,11.8875206 52.9725721,11.8276849 52.7892281,11.7747945 C52.6061505,11.7219042 52.4606478,11.6658082 52.352187,11.6062397 C52.2434597,11.5466712 52.1672441,11.4785548 52.1235399,11.4024246 C52.0793029,11.3268288 52.0569178,11.2325342 52.0569178,11.1198082 C52.0569178,11.0399384 52.0742396,10.9643425 52.1080836,10.8916849 C52.1421941,10.8190274 52.1997556,10.7527809 52.2807681,10.6929452 C52.3620471,10.6336439 52.46731,10.5858288 52.5957574,10.5492328 C52.7247378,10.5129042 52.883565,10.4947397 53.0735712,10.4947397 C53.3989535,10.4947397 53.6920909,10.5559109 53.952983,10.6782534 C54.2138752,10.8005958 54.4593111,10.9779658 54.6903565,11.2092945 L55.71687,10.2366986 C55.3778967,9.89264387 55.0005491,9.62445206 54.5837612,9.43292466 C54.1669732,9.24086301 53.6806319,9.14496575 53.1244705,9.14496575 C52.7721727,9.14496575 52.4417271,9.19144521 52.1331335,9.28386986 C51.8253393,9.37682876 51.555653,9.51092466 51.3254071,9.68615754 C51.095161,9.86139044 50.9139489,10.0748219 50.7815042,10.3261849 C50.6490594,10.5772809 50.5832367,10.8620342 50.5832367,11.1793767 C50.5832367,11.5234315 50.6373339,11.8111233 50.7463276,12.0427191 C50.8542555,12.2740479 51.0072198,12.4658425 51.2033553,12.6181027 C51.4002903,12.770363 51.6353331,12.8959109 51.9098162,12.9952809 C52.1845658,13.0941164 52.4840987,13.1803973 52.8094812,13.2533219 C53.1415257,13.3257124 53.412811,13.3951643 53.6222709,13.4616781 C53.8322638,13.5276575 53.9934893,13.5973767 54.1054144,13.6697672 C54.2170731,13.7426918 54.2935553,13.8201575 54.334328,13.9029658 C54.3743013,13.985774 54.3948209,14.083274 54.3948209,14.1957328 C54.3948209,14.4604521 54.2948877,14.6525137 54.0950214,14.7713836 C53.8954215,14.8905206 53.5817647,14.9498219 53.1548502,14.9498219 C52.8094812,14.9498219 52.4822334,14.8886507 52.1741727,14.7663082 C51.8655791,14.6439658 51.5860327,14.4404178 51.3358001,14.1559315 L50.3087537,15.0494589 C50.5800389,15.439726 50.9592519,15.7471849 51.4474588,15.9721027 C51.9356656,16.1972876 52.4771701,16.3097466 53.0738377,16.3097466 C53.5620446,16.3097466 53.9801649,16.2565891 54.3292648,16.1508082 C54.6780981,16.0450274 54.967771,15.8941027 55.1982835,15.6993699 C55.4290625,15.5043699 55.5982827,15.2709042 55.706477,14.999774 C55.8152042,14.7291781 55.8693015,14.4283973 55.8693015,14.0971643 Z" id="Path"></path>
                        <path d="M4.37600667,0.285287672 L2.95722221,0.285287672 L0.160959017,7.23182876 L1.72604563,7.23182876 L2.29979524,5.68358219 L4.97080887,5.68358219 L5.54455848,7.23182876 L7.15121728,7.23182876 L4.37600667,0.285287672 Z M2.8007935,4.36372603 L3.27007964,3.10343836 C3.34682832,2.89828767 3.41798073,2.69981507 3.48406986,2.50802055 C3.550159,2.31622603 3.60052531,2.15408219 3.63543529,2.02185616 C3.67007879,2.15434931 3.72044511,2.31622603 3.78653425,2.50802055 C3.85262337,2.69981507 3.92377579,2.89828767 4.00052446,3.10343836 L4.47007709,4.36372603 L2.8007935,4.36372603 Z" id="Shape" fill-rule="nonzero"></path>
                        <path d="M25.5559749,4.59211643 C26.0217967,4.42008904 26.5409162,4.10728767 26.7738271,3.77311643 C27.0070045,3.43921233 27.1237264,3.01047945 27.1237264,2.4879863 C27.1237264,2.1174863 27.0573708,1.79480137 26.925459,1.52019863 C26.7932807,1.24559589 26.6123351,1.01586986 26.3828886,0.830486301 C26.153442,0.64510274 25.8856211,0.50780137 25.5794259,0.418582191 C25.2732307,0.329363014 24.9499802,0.284753425 24.6091414,0.284753425 L21.207683,0.284753425 L21.207683,7.23129452 L22.6683062,7.23129452 L22.6683062,4.73075342 L23.9698357,4.79058904 L25.496548,7.23182876 L27.1762246,7.23182876 L25.5559749,4.59211643 Z M24.5779623,3.42131507 L22.6688391,3.42131507 L22.6688391,1.63506164 L24.5779623,1.63506164 C24.9049437,1.63506164 25.1607725,1.70264384 25.3449161,1.83834246 C25.5290595,1.97377397 25.6212646,2.20029452 25.6212646,2.51790411 C25.6212646,3.11973288 25.2734972,3.42131507 24.5779623,3.42131507 Z" id="Shape" fill-rule="nonzero"></path>
                    </g>
                    <ellipse id="Oval" fill="#E6E7E7" cx="143.186016" cy="18.9099706" rx="16.7638996" ry="16.8018625"></ellipse>
                    <g id="Group" transform="translate(134.551790, 14.424658)" fill="#2E2E2E">
                        <path d="M10.1020438,10.1482809 L7.92563269,10.1482809 L7.06061121,7.89242466 L3.09979354,7.89242466 L2.28220699,10.1482809 L0.159893064,10.1482809 L4.01891217,0.21610274 L6.1342974,0.21610274 L10.1020438,10.1482809 Z M6.41837408,6.21889726 L5.0531538,2.53313014 L3.71511534,6.21889726 L6.41837408,6.21889726 Z" id="Shape" fill-rule="nonzero"></path>
                        <polygon id="Path" points="13.4976395 8.71890411 13.4976395 6.13769178 10.9023085 6.13769178 10.9023085 4.35571233 13.4976395 4.35571233 13.4976395 1.7745 15.2279489 1.7745 15.2279489 4.35571233 17.8302086 4.35571233 17.8302086 6.13769178 15.2279489 6.13769178 15.2279489 8.71890411"></polygon>
                    </g>
                </g>
                <g id="GOOGLE-Copy" transform="translate(579.000000, 5.000000)" fill="#FFFFFF">
                    <g id="googlelogo2015" transform="translate(23.000000, 21.000000)">
                        <g id="Google_logo_white_2015">
                            <path d="M15.0124245,7.06240729 L7.90152764,7.06240729 L7.90152764,9.16521094 L12.9445672,9.16521094 C12.6954335,12.1139064 10.2337492,13.371403 7.91005422,13.371403 C4.93713077,13.371403 2.34296858,11.0403605 2.34296858,7.77309483 C2.34296858,4.59031185 4.81588473,2.13910881 7.91662087,2.13910881 C10.3088707,2.13910881 11.7185057,3.65888754 11.7185057,3.65888754 L13.195922,2.13420061 C13.195922,2.13420061 11.2996211,0.0303951368 7.84110836,0.0303951368 C3.43752208,0.0303951368 0.0305,3.73460243 0.0305,7.73562432 C0.0305,11.6561653 3.23539828,15.4792985 7.95355576,15.4792985 C12.1034388,15.4792985 15.141187,12.6462383 15.141187,8.4570693 C15.141187,7.57323343 15.0124245,7.06240729 15.0124245,7.06240729 Z" id="path2998"></path>
                            <path d="M20.8375048,5.53972766 C17.9197669,5.53972766 15.8287534,7.8129538 15.8287534,10.4642316 C15.8287534,13.15471 17.8569167,15.4702188 20.8717935,15.4702188 C23.6010751,15.4702188 25.8370252,13.3913495 25.8370252,10.522059 C25.8370252,7.23344559 23.236095,5.53972766 20.8375048,5.53972766 L20.8375048,5.53972766 Z M20.8665183,7.49007842 C22.3013883,7.49007842 23.6610271,8.64610091 23.6610271,10.5089161 C23.6610271,12.3322128 22.307104,13.521183 20.8599242,13.521183 C19.2697548,13.521183 18.015302,12.2520006 18.015302,10.4944596 C18.015302,8.77461094 19.2542004,7.49007842 20.8665183,7.49007842 L20.8665183,7.49007842 Z" id="path3000" fill-rule="nonzero"></path>
                            <path d="M31.7312789,5.53972766 C28.8135403,5.53972766 26.7225274,7.8129538 26.7225274,10.4642316 C26.7225274,13.15471 28.7506908,15.4702188 31.765567,15.4702188 C34.4948485,15.4702188 36.7307986,13.3913495 36.7307986,10.522059 C36.7307986,7.23344559 34.1298684,5.53972766 31.7312789,5.53972766 Z M31.7602917,7.49007842 C33.1951618,7.49007842 34.5548005,8.64610091 34.5548005,10.5089161 C34.5548005,12.3322128 33.2008781,13.521183 31.7536982,13.521183 C30.1635283,13.521183 28.9090755,12.2520006 28.9090755,10.4944596 C28.9090755,8.77461094 30.1479739,7.49007842 31.7602917,7.49007842 L31.7602917,7.49007842 Z" id="path3005" fill-rule="nonzero"></path>
                            <path d="M42.4154936,5.5449848 C39.7373294,5.5449848 37.6322524,7.88258116 37.6322524,10.5062875 C37.6322524,13.4949331 40.072791,15.4767903 42.3693336,15.4767903 C43.7893526,15.4767903 44.5444247,14.9150559 45.1018598,14.2703064 L45.1018598,15.2494249 C45.1018598,16.9625021 44.0581193,17.9883264 42.4827497,17.9883264 C40.9608571,17.9883264 40.197486,16.860586 39.9322165,16.2206571 L38.0173381,17.0184085 C38.6966646,18.4498097 40.0641156,19.9426201 42.498575,19.9426201 C45.1613171,19.9426201 47.1908176,18.2711708 47.1908176,14.7657799 L47.1908176,5.84331976 L45.1018598,5.84331976 L45.1018598,6.68444134 C44.4599885,5.99471793 43.5816513,5.5449848 42.4154936,5.5449848 Z M42.6093528,7.49139271 C43.9224046,7.49139271 45.2706644,8.60869058 45.2706644,10.5168018 C45.2706644,12.456231 43.9252783,13.5251252 42.58034,13.5251252 C41.1525557,13.5251252 39.8240757,12.3697799 39.8240757,10.5352012 C39.8240757,8.62890942 41.2038262,7.49139271 42.6093528,7.49139271 L42.6093528,7.49139271 Z" id="path3007" fill-rule="nonzero"></path>
                            <path d="M56.4790338,5.53315623 C53.9527578,5.53315623 51.8316299,7.53618541 51.8316299,10.491831 C51.8316299,13.6192918 54.1959545,15.4741617 56.7216906,15.4741617 C58.8297396,15.4741617 60.1235496,14.3248742 60.895651,13.2951313 L59.1733099,12.1530462 C58.7263751,12.8442693 57.9792007,13.5198687 56.7322405,13.5198687 C55.3315457,13.5198687 54.6875224,12.7555222 54.2885269,12.0150492 L60.9694976,9.25249058 L60.6226577,8.44291125 C59.9769849,6.85744498 58.4713133,5.53315623 56.4790338,5.53315623 L56.4790338,5.53315623 Z M56.5660692,7.44276535 C57.4763869,7.44276535 58.1315177,7.92508754 58.4097375,8.50336717 L53.9482804,10.3617198 C53.7559359,8.92296657 55.1236632,7.44276535 56.5660692,7.44276535 Z" id="path3011" fill-rule="nonzero"></path>
                            <polygon id="path3015" points="48.6467582 15.1792304 50.8412192 15.1792304 50.8412192 0.543714894 48.6467582 0.543714894"></polygon>
                        </g>
                    </g>
                    <text id="4.8" font-family="Helvetica" font-size="14.3589744" font-weight="normal">
                        <tspan x="0" y="14">4.8</tspan>
                    </text>
                    <g id="Group-9-Copy" transform="translate(22.931355, 1.000000)">
                        <polygon id="Star" points="8.66284209 12.3089198 3.6824413 15.9050323 5.43945899 9.87884714 0.604384332 6.07518173 6.67068178 5.94690693 8.66284209 0 10.6550024 5.94690693 16.7212999 6.07518173 11.8862252 9.87884714 13.6432429 15.9050323"></polygon>
                        <polygon id="Star-Copy-2" points="43.5828257 12.3089198 38.6024249 15.9050323 40.3594426 9.87884714 35.524368 6.07518173 41.5906654 5.94690693 43.5828257 0 45.574986 5.94690693 51.6412835 6.07518173 46.8062088 9.87884714 48.5632265 15.9050323"></polygon>
                        <polygon id="Star-Copy" points="26.1228339 12.3089198 21.1424331 15.9050323 22.8994508 9.87884714 18.0643761 6.07518173 24.1306736 5.94690693 26.1228339 0 28.1149942 5.94690693 34.1812917 6.07518173 29.346217 9.87884714 31.1032347 15.9050323"></polygon>
                        <polygon id="Star-Copy-3" points="61.0428175 12.3089198 56.0624167 15.9050323 57.8194344 9.87884714 52.9843598 6.07518173 59.0506572 5.94690693 61.0428175 0 63.0349779 5.94690693 69.1012753 6.07518173 64.2662006 9.87884714 66.0232183 15.9050323"></polygon>
                        <polygon id="Star-Copy-4" points="78.5028094 12.3089198 73.5224086 15.9050323 75.2794263 9.87884714 70.4443516 6.07518173 76.510649 5.94690693 78.5028094 0 80.4949697 5.94690693 86.5612671 6.07518173 81.7261925 9.87884714 83.4832102 15.9050323"></polygon>
                    </g>
                </g>
                <g id="norton_secure_seal-(2)" transform="translate(423.000000, 7.000000)" fill="#FFFFFF">
                    <path d="M78.7958861,38.6165414 L17.4367089,38.6165414 C8.62816456,38.6165414 1.47310127,31.4586466 1.47310127,22.6466165 C1.47310127,13.8345865 8.62816456,6.67669173 17.4367089,6.67669173 L78.7958861,6.67669173 C87.6044304,6.67669173 94.7594937,13.8345865 94.7594937,22.6466165 C94.7594937,31.4586466 87.6044304,38.6165414 78.7958861,38.6165414 L78.7958861,38.6165414 Z M17.4367089,7.90977444 C9.31962025,7.90977444 2.7056962,14.5263158 2.7056962,22.6466165 C2.7056962,30.7669173 9.31962025,37.3834586 17.4367089,37.3834586 L78.7958861,37.3834586 C86.9129747,37.3834586 93.5268987,30.7669173 93.5268987,22.6466165 C93.5268987,14.5263158 86.9129747,7.90977444 78.7958861,7.90977444 L17.4367089,7.90977444 Z" id="Shape" fill-rule="nonzero"></path>
                    <path d="M71.4303797,13.6842105 C69.0553797,13.6842105 67.1313291,15.6090226 67.1313291,18.0150376 C67.1313291,20.3909774 69.0553797,22.3157895 71.4303797,22.3157895 C73.8053797,22.3157895 75.7294304,20.3909774 75.7294304,18.0150376 C75.7294304,15.6390977 73.8053797,13.6842105 71.4303797,13.6842105 M71.4303797,20.2105263 C70.1977848,20.2105263 69.2056962,19.2180451 69.2056962,17.9849624 C69.2056962,16.7518797 70.1977848,15.7593985 71.4303797,15.7593985 C72.6629747,15.7593985 73.6550633,16.7518797 73.6550633,17.9849624 C73.6550633,19.2180451 72.6629747,20.2105263 71.4303797,20.2105263" id="Shape" fill-rule="nonzero"></path>
                    <path d="M51.6487342,13.6842105 C49.2737342,13.6842105 47.3496835,15.6090226 47.3496835,18.0150376 C47.3496835,20.3909774 49.2737342,22.3157895 51.6487342,22.3157895 C54.0237342,22.3157895 55.9778481,20.3909774 55.9778481,18.0150376 C55.9778481,15.6390977 54.0237342,13.6842105 51.6487342,13.6842105 M51.6487342,20.2105263 C50.4161392,20.2105263 49.4240506,19.2180451 49.4240506,17.9849624 C49.4240506,16.7518797 50.4161392,15.7593985 51.6487342,15.7593985 C52.8813291,15.7593985 53.8734177,16.7518797 53.8734177,17.9849624 C53.8734177,19.2180451 52.8813291,20.2105263 51.6487342,20.2105263" id="Shape" fill-rule="nonzero"></path>
                    <path d="M66.8306962,20.3308271 C66.5601266,20.4210526 66.1392405,20.481203 65.9889241,20.481203 C65.2373418,20.481203 65.0870253,20.2406015 65.0870253,19.518797 L65.0870253,15.518797 L66.8607595,15.518797 L66.8607595,13.8646617 L65.0870253,13.8646617 L65.0870253,11.518797 L63.1028481,11.518797 L62.681962,13.8646617 L61.2990506,13.8646617 L61.2990506,13.8646617 L61.1787975,13.8646617 C60.0363924,13.8646617 59.1946203,14.556391 58.653481,15.6390977 L57.9620253,13.8646617 L56.5490506,13.8646617 L56.5490506,22.1353383 L58.9841772,22.1353383 L58.9841772,18.5263158 C58.9841772,16.7218045 60.0664557,15.5488722 61.3291139,15.518797 L62.6518987,15.518797 L62.6518987,19.6390977 C62.6518987,21.5639098 63.6439873,22.2857143 65.2674051,22.2857143 C66.1091772,22.2857143 66.7405063,22.1052632 67.1313291,21.9849624 L66.8306962,20.3308271 Z" id="Path"></path>
                    <polyline id="Path" points="78.7056962 16.5112782 78.7056962 22.1654135 76.3306962 22.1654135 76.3306962 13.8947368 77.7737342 13.8947368 78.2547468 15.1578947"></polyline>
                    <path d="M78.2246835,15.1578947 C78.9462025,14.3157895 79.9382911,13.6842105 81.0806962,13.6842105 C83.0648734,13.6842105 83.846519,15.2481203 83.846519,16.7218045 L83.846519,22.1654135 L81.4113924,22.1654135 L81.4113924,16.7819549 C81.4113924,16.0601504 80.8101266,15.6992481 80.1787975,15.6992481 C79.4873418,15.6992481 79.0664557,16.0902256 78.6756329,16.5112782" id="Path"></path>
                    <polygon id="Path" points="37.8496835 10.887218 40.5553797 10.887218 44.2832278 17.9849624 44.2832278 10.887218 46.5379747 10.887218 46.5379747 22.1654135 44.0727848 22.1654135 40.1044304 14.3759398 40.1044304 22.1654135 37.8496835 22.1654135"></polygon>
                    <polygon id="Path" points="91.0617089 6.64661654 91.0617089 7.06766917 90.460443 7.06766917 90.460443 9.05263158 90.0094937 9.05263158 90.0094937 7.06766917 89.4082278 7.06766917 89.4082278 6.64661654"></polygon>
                    <polygon id="Path" points="91.3924051 9.05263158 91.3924051 6.64661654 91.9936709 6.64661654 92.414557 8.21052632 92.835443 6.64661654 93.4667722 6.64661654 93.4667722 9.05263158 93.0759494 9.05263158 93.0759494 7.18796992 93.0759494 7.18796992 92.5949367 9.05263158 92.2642405 9.05263158 91.7832278 7.18796992 91.7531646 7.18796992 91.7531646 9.05263158"></polygon>
                    <path d="M37.1882911,32.1503759 L37.7594937,31.2781955 C38.210443,31.6090226 38.9018987,31.9398496 39.7436709,31.9398496 C40.5553797,31.9398496 41.0664557,31.5789474 41.0664557,30.9172932 C41.0664557,30.1954887 40.4351266,29.9849624 39.3829114,29.6240602 C38.4509494,29.2932331 37.5189873,28.8120301 37.5189873,27.4887218 C37.5189873,26.2556391 38.5110759,25.5639098 39.8037975,25.5639098 C40.6756329,25.5639098 41.3370253,25.7443609 41.8481013,26.0451128 L41.3971519,26.9774436 C40.9762658,26.7368421 40.4351266,26.5864662 39.8338608,26.5864662 C39.1123418,26.5864662 38.6613924,26.8571429 38.6613924,27.4586466 C38.6613924,28.1503759 39.1724684,28.3007519 40.1344937,28.6315789 C41.1265823,28.962406 42.2389241,29.4135338 42.2389241,30.887218 C42.2389241,32.1203008 41.3670886,32.9323308 39.7737342,32.9323308 C38.5411392,32.962406 37.6993671,32.5714286 37.1882911,32.1503759" id="Path"></path>
                    <polygon id="Path" points="44.3433544 25.7142857 48.6123418 25.7142857 48.6123418 26.7067669 45.5458861 26.7067669 45.5458861 28.6616541 47.9509494 28.6616541 47.9509494 29.6240602 45.5458861 29.6240602 45.5458861 31.8796992 48.7927215 31.8796992 48.7927215 32.8721805 44.3433544 32.8721805"></polygon>
                    <path d="M50.5363924,29.2932331 C50.5363924,27.1879699 51.528481,25.593985 53.5427215,25.593985 C54.4446203,25.593985 55.1360759,25.8646617 55.6471519,26.4661654 L54.9256329,27.2781955 C54.5047468,26.8571429 54.1439873,26.6466165 53.5427215,26.6466165 C52.3702532,26.6466165 51.8291139,27.6090226 51.8291139,29.3834586 C51.8291139,31.037594 52.4003165,31.8796992 53.5427215,31.8796992 C54.1740506,31.8796992 54.625,31.5488722 55.0158228,31.1278195 L55.7373418,31.9097744 C55.2262658,32.5112782 54.5648734,32.9323308 53.5126582,32.9323308 C51.4984177,32.962406 50.5363924,31.3984962 50.5363924,29.2932331" id="Path"></path>
                    <path d="M57.721519,30.1353383 L57.721519,25.7142857 L58.9541139,25.7142857 L58.9541139,30.3458647 C58.9541139,31.3383459 59.1946203,31.9699248 60.2468354,31.9699248 C61.2689873,31.9699248 61.539557,31.3383459 61.539557,30.3458647 L61.539557,25.7142857 L62.7721519,25.7142857 L62.7721519,30.1353383 C62.7721519,31.9097744 62.0806962,32.962406 60.2468354,32.962406 C58.4129747,32.962406 57.721519,31.9097744 57.721519,30.1353383" id="Path"></path>
                    <path d="M70.2278481,32.8721805 L68.9050633,32.8721805 L67.5221519,29.8345865 L66.3797468,29.8345865 L66.3797468,32.8721805 L65.1772152,32.8721805 L65.1772152,25.7142857 L67.5221519,25.7142857 C68.9651899,25.7142857 70.1075949,26.2255639 70.1075949,27.7894737 C70.1075949,28.8721805 69.4762658,29.4135338 68.7547468,29.6541353 L70.2278481,32.8721805 Z M67.4620253,28.9022556 C68.3639241,28.9022556 68.8449367,28.6015038 68.8449367,27.7894737 C68.8449367,27.0075188 68.3639241,26.7067669 67.5522152,26.7067669 L66.4098101,26.7067669 L66.4098101,28.9022556 L67.4620253,28.9022556 Z" id="Shape" fill-rule="nonzero"></path>
                    <polygon id="Path" points="72.3022152 25.7142857 76.5712025 25.7142857 76.5712025 26.7067669 73.5047468 26.7067669 73.5047468 28.6616541 75.9098101 28.6616541 75.9098101 29.6240602 73.5047468 29.6240602 73.5047468 31.8796992 76.7515823 31.8796992 76.7515823 32.8721805 72.3022152 32.8721805"></polygon>
                    <path d="M78.7958861,25.7142857 L80.5696203,25.7142857 C82.914557,25.7142857 84.0268987,26.9774436 84.0268987,29.2631579 C84.0268987,31.6090226 82.8844937,32.8721805 80.6297468,32.8721805 L78.7658228,32.8721805 L78.7658228,25.7142857 L78.7958861,25.7142857 Z M80.5094937,31.8796992 C82.193038,31.8796992 82.7642405,31.0977444 82.7642405,29.2631579 C82.7642405,27.6390977 82.3132911,26.7067669 80.6598101,26.7067669 L79.9984177,26.7067669 L79.9984177,31.8796992 L80.5094937,31.8796992 Z" id="Shape" fill-rule="nonzero"></path>
                    <path d="M17.3765823,39.8796992 C7.87658228,39.8796992 0.150316456,32.1503759 0.150316456,22.6466165 C0.150316456,13.1428571 7.87658228,5.41353383 17.3765823,5.41353383 C26.8765823,5.41353383 34.6028481,13.1428571 34.6028481,22.6466165 C34.6028481,32.1503759 26.8765823,39.8796992 17.3765823,39.8796992 M17.3765823,10.8571429 C14.2199367,10.8571429 11.2737342,12.0902256 9.04905063,14.3157895 C6.82436709,16.5413534 5.59177215,19.4887218 5.59177215,22.6466165 C5.59177215,25.8045113 6.82436709,28.7518797 9.04905063,30.9774436 C11.2737342,33.2030075 14.2199367,34.4360902 17.3765823,34.4360902 C20.5332278,34.4360902 23.4794304,33.2030075 25.7041139,30.9774436 C27.9287975,28.7518797 29.1613924,25.8045113 29.1613924,22.6466165 C29.1613924,19.4887218 27.9287975,16.5413534 25.7041139,14.3157895 C23.4794304,12.0902256 20.5031646,10.8571429 17.3765823,10.8571429" id="Shape" fill-rule="nonzero"></path>
                    <rect id="Rectangle" x="36.1360759" y="2.73684211" width="1.3528481" height="1.35338346"></rect>
                    <rect id="Rectangle" x="36.1360759" y="0.0601503759" width="1.3528481" height="1.35338346"></rect>
                    <rect id="Rectangle" x="32.3481013" y="4.06015038" width="1.26265823" height="1.32330827"></rect>
                    <rect id="Rectangle" x="29.8829114" y="6.64661654" width="1.26265823" height="1.26315789"></rect>
                    <rect id="Rectangle" x="33.6107595" y="5.38345865" width="1.41297468" height="1.26315789"></rect>
                    <rect id="Rectangle" x="28.6202532" y="5.44360902" width="1.26265823" height="1.20300752"></rect>
                    <rect id="Rectangle" x="32.3481013" y="6.64661654" width="1.26265823" height="1.26315789"></rect>
                    <rect id="Rectangle" x="34.8132911" y="1.41353383" width="1.32278481" height="1.32330827"></rect>
                    <rect id="Rectangle" x="32.3481013" y="2.73684211" width="2.46518987" height="1.32330827"></rect>
                    <rect id="Rectangle" x="31.1455696" y="4.06015038" width="1.23259494" height="2.58646617"></rect>
                    <path d="M31.1455696,7.90977444 L31.1455696,9.17293233 L29.8829114,9.17293233 L29.8829114,7.90977444 L27.778481,7.90977444 L27.778481,8.81203008 L26.6661392,8.81203008 L26.6661392,9.92481203 L27.9287975,9.92481203 L27.9287975,11.1879699 L26.6661392,11.1879699 L26.6661392,9.92481203 L25.3433544,9.92481203 L25.3433544,11.8796992 L24.0506329,11.8796992 L24.0506329,13.1428571 L23.2088608,13.1428571 L23.2088608,14.406015 L22.2768987,14.406015 C21.2547468,15.9398496 18.6392405,20.7518797 17.8575949,22.7067669 C15.0316456,18.7669173 12.8370253,17.2030075 11.0933544,16.6315789 C10.1613924,16.3609023 9.04905063,17.3533835 10.5822785,18.9774436 C14.1297468,22.887218 15.2721519,26.1353383 16.3544304,28.7218045 C16.9256329,30.075188 19.4810127,30.2857143 19.9920886,28.9022556 C21.0743671,25.9548872 22.6677215,22.6766917 24.5617089,19.9699248 L24.5617089,18.556391 L25.5537975,18.556391 L25.5537975,17.2932331 L26.6060127,17.2932331 L26.6060127,15.8195489 L27.8686709,15.8195489 L27.8686709,14.4360902 L26.6060127,14.4360902 L26.6060127,13.1428571 L27.8686709,13.1428571 L27.8686709,14.4360902 L29.1012658,14.4360902 L29.1012658,13.1729323 L30.0933544,13.1729323 L30.0933544,11.6390977 L31.2056962,11.6390977 L31.2056962,10.5864662 L32.2879747,10.5864662 L32.2879747,7.90977444 L31.1455696,7.90977444 Z" id="Path"></path>
                </g>
                <g id="description">
                    <text id="All-experts-are-veri" font-family="Helvetica" font-size="14" font-weight="normal" line-spacing="24">
                        <tspan x="34" y="14" fill="#FFFFFF">All experts are</tspan>
                        <tspan x="123.482422" y="14" font-size="16" fill="#FFFFFF"> </tspan>
                        <tspan x="127.927734" y="14" font-size="18" fill="#FFFFFF"></tspan>
                        <tspan x="34" y="38" font-family="Helvetica-Bold, Helvetica" font-size="22" font-weight="bold" line-spacing="28" fill="#00BF8F">VERIFIED</tspan>
                        <tspan x="135.459961" y="38" font-family="Helvetica-Bold, Helvetica" font-size="18" font-weight="bold" line-spacing="28" fill="#00BF8F">​</tspan>
                    </text>
                    <g id="verified-icon" transform="translate(0.000000, 9.000000)" fill-rule="nonzero">
                        <path d="M13,0 L0,5.81818182 L0,14.5454545 C0,22.6254545 5.53944444,30.16 13,32 C20.4605556,30.16 26,22.6254545 26,14.5454545 L26,5.81818182 L13,0 Z" id="Path" fill="#02BF8F"></path>
                        <polygon id="Path" fill="#FFFFFF" points="10.0533333 23.7419355 4.16 17.6021106 6.24476667 15.4301475 10.0533333 19.3980094 19.7552333 9.29032258 21.84 11.4622856"></polygon>
                    </g>
                </g>
            </g>
        </g>
    </g>
</svg>